<svg height="50" viewBox="0 0 210 50" width="210" xmlns="http://www.w3.org/2000/svg">
<defs>
<style>
svg { color-scheme: light dark; }
rect { fill: #edf3f4; }
.text path { fill: #677779; }
.bars path { fill: #FF4F64; }

@media (prefers-color-scheme: dark) {
rect { fill: #2a3638; }
.text path { fill: rgb(164, 189, 192); }
.bars path { fill: #ff4f64; }
}
</style>
</defs>
<rect height="50" rx="3" width="210"/>
<g class="bars">
<path d="m11 27h5v14h-5z"/>
<path d="m23 18h5v23h-5z"/>
<path d="m35 10h5v31h-5z"/>
</g>
<g class="text">
<path d="M52.9 18.57v-7.51h-.19l-1.38 2.83H50l1.86-3.72h2.3v8.4H52.9ZM58.9 18.74c-.98 0-1.76-.28-2.34-.83-.58-.56-.87-1.4-.87-2.52v-2.04c0-1.1.3-1.93.87-2.5A3.21 3.21 0 0 1 58.9 10c.98 0 1.76.28 2.34.85.58.57.87 1.4.87 2.5v2.04c0 1.12-.29 1.96-.87 2.52-.58.55-1.36.83-2.34.83Zm0-1.13c.66 0 1.15-.19 1.47-.57.32-.38.48-.92.48-1.6v-2.16c0-.7-.17-1.22-.51-1.59a1.85 1.85 0 0 0-1.44-.56c-.63 0-1.1.19-1.44.57-.34.38-.5.9-.5 1.58v2.16c0 .7.15 1.24.47 1.62.33.36.82.55 1.47.55ZM66.63 18.74c-.97 0-1.75-.28-2.34-.83-.57-.56-.86-1.4-.86-2.52v-2.04c0-1.1.29-1.93.86-2.5a3.21 3.21 0 0 1 2.34-.85c.99 0 1.77.28 2.34.85.59.57.88 1.4.88 2.5v2.04c0 1.12-.3 1.96-.88 2.52-.57.55-1.35.83-2.34.83Zm0-1.13c.67 0 1.16-.19 1.48-.57.32-.38.48-.92.48-1.6v-2.16c0-.7-.17-1.22-.52-1.59a1.85 1.85 0 0 0-1.44-.56c-.62 0-1.1.19-1.44.57-.33.38-.5.9-.5 1.58v2.16c0 .7.16 1.24.48 1.62.33.36.82.55 1.46.55ZM72.2 18.72l-.77-.62 6.56-8.09.77.63-6.56 8.08Zm5.2-.02c-.6 0-1.07-.16-1.41-.5a1.8 1.8 0 0 1-.52-1.35v-.07c0-.58.17-1.03.52-1.36.34-.33.81-.5 1.4-.5.59 0 1.05.17 1.4.5.36.33.53.78.53 1.36v.07c0 .57-.17 1.02-.52 1.36-.35.33-.82.49-1.4.49Zm0-.84c.28 0 .5-.09.66-.26.17-.18.26-.41.26-.7v-.17c0-.3-.09-.53-.26-.7a.86.86 0 0 0-.67-.27c-.28 0-.5.09-.67.26-.16.18-.24.42-.24.71v.17a1 1 0 0 0 .24.7c.17.17.4.26.67.26Zm-4.6-4.04a2 2 0 0 1-1.42-.5 1.8 1.8 0 0 1-.52-1.35v-.09c0-.57.18-1.02.52-1.35a2 2 0 0 1 1.42-.5c.58 0 1.04.17 1.39.5.35.33.53.78.53 1.35v.09a1.8 1.8 0 0 1-.52 1.35c-.34.33-.81.5-1.4.5Zm0-.84c.28 0 .5-.1.66-.27a1 1 0 0 0 .25-.7v-.17a.97.97 0 0 0-.25-.7.85.85 0 0 0-.66-.26.9.9 0 0 0-.69.26 1 1 0 0 0-.24.7V12c0 .3.08.53.24.71.17.18.4.27.69.27ZM83.61 18.57v-8.4h3.34c.51 0 .97.1 1.37.31.4.2.72.49.95.86.23.37.34.82.34 1.34v.15c0 .52-.12.97-.36 1.35a2.3 2.3 0 0 1-.94.86 3 3 0 0 1-1.36.3h-2.04v3.23h-1.3Zm1.3-4.4h1.9c.46 0 .83-.13 1.1-.37.27-.24.4-.56.4-.98v-.12c0-.42-.13-.76-.4-1a1.6 1.6 0 0 0-1.1-.36h-1.9v2.82ZM90.84 18.57v-8.4h3.53c.52 0 .98.09 1.37.27A2.04 2.04 0 0 1 97 12.41v.13c0 .53-.13.96-.38 1.28a2 2 0 0 1-.92.66v.19c.3.01.55.12.74.31.18.18.27.45.27.8v2.79h-1.3v-2.6a.76.76 0 0 0-.17-.52c-.12-.13-.3-.2-.54-.2h-2.56v3.32h-1.3Zm1.3-4.49h2.09c.46 0 .82-.12 1.08-.35.25-.24.38-.56.38-.97v-.1c0-.4-.13-.72-.38-.96s-.61-.36-1.08-.36h-2.09v2.74ZM98.43 18.57v-8.4h1.3v8.4h-1.3ZM103.19 18.57l-2.34-8.4h1.34l2.04 7.58h.16l2.03-7.58h1.34l-2.33 8.4h-2.24ZM107.7 18.57l2.4-8.4h2.27l2.4 8.4h-1.34l-.55-1.98h-3.3l-.54 1.98h-1.35Zm2.21-3.18h2.64l-1.22-4.42h-.2l-1.22 4.42ZM118.92 18.74a3.37 3.37 0 0 1-2.43-.87c-.6-.58-.9-1.42-.9-2.52v-1.97c0-1.1.3-1.93.9-2.5.6-.59 1.41-.88 2.44-.88 1 0 1.78.28 2.32.84.56.56.83 1.32.83 2.3v.06h-1.28v-.1c0-.57-.16-1.04-.47-1.4-.3-.36-.77-.54-1.4-.54-.65 0-1.15.2-1.5.6-.37.38-.55.91-.55 1.6v2.02c0 .68.19 1.21.55 1.6.35.4.85.6 1.5.6.63 0 1.1-.19 1.4-.55.31-.37.47-.83.47-1.39v-.2h1.28v.16c0 .97-.27 1.74-.83 2.3-.54.56-1.32.84-2.33.84ZM125.49 18.57v-3.05l-2.92-5.35h1.47l2.01 3.8h.18l2.02-3.8h1.46l-2.91 5.35v3.05h-1.31ZM133.65 18.57v-8.4h5.19v1.17h-3.9v2.43h3.59v1.17h-3.58v3.63h-1.3ZM140.1 18.57v-8.4h3.53c.52 0 .97.09 1.36.27a2.04 2.04 0 0 1 1.26 1.97v.13c0 .53-.12.96-.38 1.28a2 2 0 0 1-.91.66v.19c.3.01.55.12.73.31.18.18.28.45.28.8v2.79h-1.31v-2.6a.76.76 0 0 0-.17-.52c-.11-.13-.3-.2-.54-.2h-2.56v3.32h-1.3Zm1.3-4.49h2.08c.47 0 .83-.12 1.08-.35.26-.24.39-.56.39-.97v-.1c0-.4-.13-.72-.39-.96-.25-.24-.6-.36-1.08-.36h-2.09v2.74ZM147.68 18.57v-8.4h1.3v8.4h-1.3ZM150.73 18.57v-8.4h5.29v1.17h-4v2.42h3.66v1.17h-3.66v2.46h4.06v1.18h-5.35ZM157.43 18.57v-8.4h2.5l2.28 7.53h.19v-7.53h1.28v8.4h-2.5l-2.27-7.55h-.2v7.55h-1.28ZM165.12 18.57v-1.15h1.13v-6.1h-1.13v-1.15h3.36c1.12 0 1.98.28 2.57.85.6.57.9 1.42.9 2.57v1.57c0 1.14-.3 2-.9 2.57-.6.56-1.45.84-2.57.84h-3.36Zm2.44-1.18h.93c.73 0 1.27-.18 1.62-.55.36-.37.53-.92.53-1.64v-1.66c0-.74-.17-1.28-.53-1.64-.35-.36-.89-.54-1.62-.54h-.93v6.03ZM173.41 18.57v-8.4h1.3v7.22h4.04v1.18h-5.34ZM180.7 18.57v-3.05l-2.92-5.35h1.46l2.02 3.8h.18l2.02-3.8h1.46L182 15.52v3.05h-1.3Z" />
<path d="M55.14 39.85c-1 0-1.9-.18-2.67-.53a4.22 4.22 0 0 1-1.82-1.56 4.72 4.72 0 0 1-.65-2.53v-.48h2.04v.48c0 .93.27 1.64.83 2.1.57.48 1.33.71 2.27.71.95 0 1.66-.2 2.15-.59.48-.4.72-.92.72-1.56 0-.42-.12-.76-.34-1.03a2.26 2.26 0 0 0-.97-.62c-.42-.17-.92-.32-1.5-.46l-.71-.17c-.85-.2-1.6-.45-2.23-.74-.62-.3-1.1-.7-1.44-1.2a3.27 3.27 0 0 1-.52-1.9c0-.79.2-1.46.58-2.02.39-.56.93-.99 1.61-1.3a5.9 5.9 0 0 1 2.42-.45c.92 0 1.75.16 2.47.48.74.31 1.31.78 1.73 1.4.42.62.63 1.4.63 2.34v.69H57.7v-.69c0-.57-.12-1.03-.36-1.39a1.98 1.98 0 0 0-.97-.78c-.42-.16-.9-.24-1.46-.24-.81 0-1.45.17-1.9.51-.45.33-.67.8-.67 1.39 0 .4.1.74.29 1 .2.26.49.47.87.64.38.16.86.3 1.43.43l.7.17c.86.2 1.62.44 2.28.75.66.29 1.18.69 1.56 1.2.38.5.57 1.15.57 1.95s-.2 1.5-.6 2.1c-.4.6-.96 1.06-1.7 1.4-.73.33-1.6.5-2.6.5ZM62.26 39.58V30.2h1.96v9.38h-1.96Zm.99-10.65c-.38 0-.7-.12-.97-.36a1.31 1.31 0 0 1-.38-.97c0-.4.12-.71.38-.95.26-.26.59-.38.97-.38.39 0 .71.12.97.38.25.24.38.55.38.95 0 .4-.13.71-.38.97-.26.24-.58.36-.97.36ZM67.12 39.58V30.2h1.93v1.1h.3c.18-.32.46-.61.86-.87.39-.25.92-.38 1.6-.38.7 0 1.25.15 1.67.44.43.28.75.64.97 1.08h.3c.22-.43.53-.79.94-1.08.41-.3 1-.44 1.76-.44.61 0 1.15.13 1.62.38.47.24.84.61 1.12 1.1.28.49.42 1.09.42 1.81v6.24h-1.96V33.5c0-.57-.16-1-.47-1.3-.3-.32-.74-.48-1.32-.48-.6 0-1.1.2-1.46.59-.37.39-.55.95-.55 1.69v5.6h-1.96v-6.1c0-.57-.16-1-.48-1.3-.3-.32-.74-.48-1.3-.48-.62 0-1.1.2-1.47.59-.37.39-.56.95-.56 1.69v5.6h-1.96ZM83.44 43.39V30.2h1.92v1.35h.3c.24-.41.6-.79 1.09-1.12.49-.33 1.2-.5 2.1-.5a4.16 4.16 0 0 1 3.74 2.23c.4.71.6 1.58.6 2.59v.29c0 1.01-.2 1.88-.59 2.6a4.17 4.17 0 0 1-3.74 2.2c-.61 0-1.13-.07-1.54-.22a3.05 3.05 0 0 1-1.01-.57 3.56 3.56 0 0 1-.61-.74h-.3v5.08h-1.96Zm4.85-5.25c.86 0 1.56-.28 2.1-.82.55-.55.83-1.33.83-2.34v-.17c0-1-.28-1.78-.84-2.32a2.83 2.83 0 0 0-2.1-.82c-.83 0-1.53.27-2.09.82-.54.54-.81 1.32-.81 2.32v.17c0 1.01.27 1.8.81 2.34.56.54 1.26.82 2.1.82ZM95.62 39.58V26.27h1.96v13.31h-1.96ZM104.79 39.85c-.95 0-1.78-.2-2.5-.6a4.39 4.39 0 0 1-1.67-1.68 5.33 5.33 0 0 1-.59-2.55v-.23c0-.98.2-1.83.6-2.55.39-.74.93-1.3 1.63-1.7.7-.4 1.53-.6 2.45-.6.9 0 1.69.2 2.36.6.69.4 1.22.95 1.6 1.66.38.71.57 1.54.57 2.5v.74h-7.21c.03.82.3 1.48.82 1.97.53.49 1.19.73 1.98.73.73 0 1.28-.17 1.65-.5.38-.33.67-.7.88-1.14l1.61.84c-.17.35-.43.73-.78 1.12-.33.4-.76.72-1.3.99-.56.27-1.25.4-2.1.4Zm-2.74-5.92h5.2a2.3 2.3 0 0 0-.77-1.65c-.45-.4-1.05-.61-1.79-.61-.73 0-1.33.2-1.8.6-.46.4-.74.95-.84 1.66ZM115.16 39.58l3.8-13.31h3.62l3.78 13.31h-2.1l-.88-3.14h-5.22l-.87 3.14h-2.13Zm3.52-5.04h4.18l-1.94-7h-.3l-1.94 7ZM128.22 39.58V30.2h1.93v1.41h.3c.18-.38.5-.73.95-1.06.46-.33 1.14-.5 2.04-.5.7 0 1.33.16 1.88.48.56.31 1 .76 1.31 1.35.32.57.48 1.26.48 2.07v5.63h-1.96V34.1c0-.8-.2-1.4-.61-1.78a2.3 2.3 0 0 0-1.67-.6c-.82 0-1.47.27-1.96.8-.49.54-.73 1.31-.73 2.33v4.73h-1.96ZM142.84 39.85c-.67 0-1.28-.12-1.8-.34a2.98 2.98 0 0 1-1.26-1.01 2.8 2.8 0 0 1-.46-1.62c0-.65.15-1.18.46-1.6.31-.43.74-.75 1.27-.97a4.98 4.98 0 0 1 1.84-.32h2.86v-.6c0-.55-.17-1-.5-1.32-.33-.33-.83-.5-1.52-.5-.67 0-1.18.16-1.54.48-.35.32-.59.73-.7 1.24l-1.83-.6a3.68 3.68 0 0 1 2.07-2.38 4.85 4.85 0 0 1 2.02-.37c1.22 0 2.18.3 2.87.93.7.62 1.05 1.5 1.05 2.64v3.87c0 .38.18.57.53.57h.8v1.63h-1.46c-.45 0-.8-.11-1.09-.34a1.14 1.14 0 0 1-.42-.93v-.06h-.28c-.1.2-.25.41-.46.67-.2.25-.5.47-.9.66-.38.18-.9.27-1.55.27Zm.28-1.62a2.7 2.7 0 0 0 1.9-.66c.49-.46.73-1.08.73-1.87v-.19H143c-.52 0-.94.12-1.26.34a1.1 1.1 0 0 0-.47.97c0 .44.16.78.5 1.03.32.25.77.38 1.34.38ZM150.9 39.58V26.27h1.97v13.31h-1.96ZM156.86 43.39v-1.72h5.23c.35 0 .53-.19.53-.57v-2.89h-.3a2.55 2.55 0 0 1-1.47 1.32c-.39.15-.88.22-1.48.22-.71 0-1.34-.16-1.9-.47-.56-.32-1-.77-1.32-1.35a4.28 4.28 0 0 1-.47-2.08V30.2h1.96v5.5c0 .81.2 1.42.6 1.8.41.39.98.58 1.7.58.8 0 1.44-.27 1.92-.8.5-.53.74-1.3.74-2.32V30.2h1.96v11.3c0 .57-.17 1.03-.51 1.37-.33.35-.79.52-1.37.52h-5.82ZM170.98 39.58c-.57 0-1.03-.17-1.37-.51-.33-.34-.5-.8-.5-1.37v-5.84h-2.58V30.2h2.58v-3.1h1.96v3.1h2.8v1.66h-2.8v5.5c0 .38.18.57.53.57h1.97v1.65h-2.6ZM176.17 39.58V30.2h1.96v9.38h-1.96Zm.99-10.65c-.38 0-.7-.12-.97-.36a1.31 1.31 0 0 1-.38-.97c0-.4.13-.71.38-.95.27-.26.59-.38.97-.38a1.31 1.31 0 0 1 1.35 1.33c0 .4-.13.71-.38.97-.25.24-.58.36-.97.36ZM185.4 39.85c-.9 0-1.72-.2-2.46-.57a4.35 4.35 0 0 1-1.73-1.66 5.12 5.12 0 0 1-.63-2.6v-.25c0-1.02.21-1.88.63-2.59.43-.72 1-1.27 1.73-1.65.74-.4 1.55-.6 2.45-.6.9 0 1.67.17 2.3.5a4.3 4.3 0 0 1 2.28 3.12l-1.9.4c-.06-.42-.19-.8-.4-1.14-.2-.34-.48-.61-.85-.82-.37-.2-.83-.3-1.39-.3-.54 0-1.04.12-1.48.38-.43.24-.77.6-1.03 1.06a3.41 3.41 0 0 0-.38 1.68v.17c0 .66.13 1.22.38 1.7.26.46.6.82 1.03 1.06.44.24.94.36 1.48.36.83 0 1.45-.21 1.89-.63.43-.43.7-.98.81-1.64l1.9.44a4.98 4.98 0 0 1-.81 1.79c-.38.55-.89.98-1.52 1.31a5.1 5.1 0 0 1-2.3.48ZM196.14 39.85c-1.2 0-2.18-.27-2.97-.8a3.44 3.44 0 0 1-1.44-2.42l1.82-.43c.1.52.27.93.51 1.23.25.3.54.52.9.65.37.13.76.19 1.18.19.62 0 1.1-.12 1.43-.36.34-.24.5-.55.5-.93a.9.9 0 0 0-.47-.84 4.73 4.73 0 0 0-1.4-.44l-.65-.11a8.4 8.4 0 0 1-1.73-.5 3.04 3.04 0 0 1-1.24-.9c-.3-.37-.46-.86-.46-1.46 0-.88.33-1.57 1-2.05.65-.5 1.53-.74 2.62-.74 1.05 0 1.91.24 2.59.72a3.2 3.2 0 0 1 1.33 1.92l-1.83.52c-.11-.58-.35-.97-.72-1.2a2.45 2.45 0 0 0-1.37-.36c-.53 0-.95.1-1.26.3a.91.91 0 0 0-.45.82c0 .38.14.66.43.83.3.18.72.32 1.22.4l.67.12c.67.11 1.28.27 1.84.47a3 3 0 0 1 1.31.88c.34.38.5.89.5 1.52 0 .94-.35 1.67-1.05 2.19a4.6 4.6 0 0 1-2.81.78Z" />
</g>
</svg>